<svg xmlns="http://www.w3.org/2000/svg" xmlns:xlink="http://www.w3.org/1999/xlink" viewBox="0 0 400 400"><title>W3C developers</title><svg id="logo" width="400" height="400"><circle cx="60" cy="200" r="40" fill="#ecf0f1"/><circle cx="155" cy="105" r="40" fill="#ecf0f1"/><circle cx="155" cy="295" r="40" fill="#ecf0f1"/><line x1="60" x2="155" y1="200" y2="105" stroke="#ecf0f1" stroke-width="80"/><line x1="60" x2="155" y1="200" y2="295" stroke="#ecf0f1" stroke-width="80"/><line x1="60" x2="155" y1="200" y2="105" stroke="#F99D1C" stroke-width="60"/><line x1="60" x2="155" y1="200" y2="295" stroke="#D02E27" stroke-width="60"/><circle cx="155" cy="105" r="30" fill="#F99D1C"/><circle cx="60" cy="200" r="30" fill="#D02E27"/><circle cx="155" cy="295" r="30" fill="#D02E27"/><circle cx="60" cy="200" r="15" fill="#ecf0f1"/><circle cx="155" cy="105" r="15" fill="#ecf0f1"/><circle cx="155" cy="295" r="15" fill="#ecf0f1"/><circle cx="340" cy="200" r="40" fill="#ecf0f1"/><circle cx="245" cy="105" r="40" fill="#ecf0f1"/><circle cx="245" cy="295" r="40" fill="#ecf0f1"/><line x1="340" x2="245" y1="200" y2="105" stroke="#ecf0f1" stroke-width="80"/><line x1="340" x2="245" y1="200" y2="295" stroke="#ecf0f1" stroke-width="80"/><line x1="340" x2="245" y1="200" y2="105" stroke="#30B4C5" stroke-width="60"/><line x1="340" x2="245" y1="200" y2="295" stroke="#694D9F" stroke-width="60"/><circle cx="340" cy="200" r="30" fill="#694D9F"/><circle cx="245" cy="105" r="30" fill="#30B4C5"/><circle cx="245" cy="295" r="30" fill="#694D9F"/><circle cx="340" cy="200" r="15" fill="#ecf0f1"/><circle cx="245" cy="105" r="15" fill="#ecf0f1"/><circle cx="245" cy="295" r="15" fill="#ecf0f1"/></svg></svg>