<svg xmlns="http://www.w3.org/2000/svg" xmlns:svg="http://www.w3.org/2000/svg" id="svg2" width="368.844" height="334.563" version="1.1"><defs id="defs4"><linearGradient id="linearGradient3754"><stop style="stop-color:#ff0707;stop-opacity:1" id="stop3756" offset="0"/><stop style="stop-color:#ad1a00;stop-opacity:1" id="stop3758" offset="1"/></linearGradient><filter id="filter4028" color-interpolation-filters="sRGB"><feGaussianBlur id="feGaussianBlur4030" stdDeviation="6.773"/></filter></defs><metadata id="metadata7"/><g id="layer1" transform="translate(-250.21875,-425.15625)"><path style="fill:rgba(0,0,0,.1);fill-opacity:1;stroke-linecap:butt;stroke-miterlimit:4;stroke-opacity:1;stroke-dasharray:none" id="path2985-9" d="m 517.61383,481.03405 c -26.06773,0 -49.12791,12.68088 -63.46875,32.1875 -14.35999,-19.29378 -37.28731,-31.8125 -63.1875,-31.8125 -43.51557,0 -78.78125,35.26568 -78.78125,78.78125 0,10.745 2.13761,20.98024 6.03125,30.3125 l 0.0625,0.0937 c 2.76047,6.59011 6.4245,12.71349 10.78125,18.25 l 124.59375,129.8438 c 41.75685,-41.79895 88.65523,-91.41528 125.875,-130.21875 4.35675,-5.53651 8.02078,-11.65989 10.78125,-18.25 l 0.0625,-0.0937 c 3.89364,-9.33226 6.03125,-19.5675 6.03125,-30.3125 0,-43.51557 -35.26568,-78.78125 -78.78125,-78.78125 z"/></g><g id="layer1" transform="translate(-270.21875,-431.15625)"><path style="fill:#ee677e;fill-opacity:1;stroke-linecap:butt;stroke-miterlimit:4;stroke-opacity:1;stroke-dasharray:none" id="path2985-9" d="m 517.61383,481.03405 c -26.06773,0 -49.12791,12.68088 -63.46875,32.1875 -14.35999,-19.29378 -37.28731,-31.8125 -63.1875,-31.8125 -43.51557,0 -78.78125,35.26568 -78.78125,78.78125 0,10.745 2.13761,20.98024 6.03125,30.3125 l 0.0625,0.0937 c 2.76047,6.59011 6.4245,12.71349 10.78125,18.25 l 124.59375,129.8438 c 41.75685,-41.79895 88.65523,-91.41528 125.875,-130.21875 4.35675,-5.53651 8.02078,-11.65989 10.78125,-18.25 l 0.0625,-0.0937 c 3.89364,-9.33226 6.03125,-19.5675 6.03125,-30.3125 0,-43.51557 -35.26568,-78.78125 -78.78125,-78.78125 z"/></g></svg>