<svg xmlns="http://www.w3.org/2000/svg" xmlns:xlink="http://www.w3.org/1999/xlink" id="Layer_1" x="0" y="0" version="1.1" viewBox="-469 151 500 500" xml:space="preserve" style="enable-background:new -469 151 500 500"><style type="text/css">.st0{fill:#df5a49}.st1{fill:#efc94c}.st2{fill:#45b29d}</style><path d="M-379,231c0-22.1,17.9-40,40-40s40,17.9,40,40v140c0,22.1-17.9,40-40,40s-40-17.9-40-40" class="st0"/><path d="M-259,231c0-22.1,17.9-40,40-40s40,17.9,40,40v240c0,22.1-17.9,40-40,40s-40-17.9-40-40" class="st1"/><path d="M-139,231c0-22.1,17.9-40,40-40s40,17.9,40,40v340c0,22.1-17.9,40-40,40s-40-17.9-40-40" class="st2"/></svg>