<svg xmlns="http://www.w3.org/2000/svg" xmlns:svg="http://www.w3.org/2000/svg" xmlns:xhtml="http://www.w3.org/1999/xhtml" id="Capa_1" width="983.172" height="665" x="0" y="0" version="1.1" viewBox="0 0 983.172 665" xml:space="preserve"><metadata id="metadata9"/><path id="path3" d="M 983.09059,578.83536 C 982.76938,411.68332 983.73368,244.50174 982.60765,77.368278 978.67898,26.282912 921.55995,-5.8811898 868.92183,0.89897639 507.16041,1.1911739 446.59615,0.31426173 84.854923,1.3380033 28.936585,4.9102532 -6.4673529,56.897557 0.98782348,104.93218 1.3076865,265.7999 0.34502725,426.69726 1.4706404,587.54644 5.4184256,638.5646 62.386279,670.8963 115.03505,664.10103 c 361.77054,-0.2957 422.34515,0.59505 784.09489,-0.44684 46.45887,-3.55448 84.88138,-42.2252 83.96065,-84.81883 z m -931.654983,29.6248 c 0,-178.46533 0,-373.45501 0,-551.920331 294.009983,0 588.020063,0 882.030123,0 0,178.465321 0,373.455001 0,551.920331 -294.01006,0 -588.02014,0 -882.030123,0 z" style="fill:#44ad99;fill-opacity:1"/></svg>